:FULLY-SPECIFIED
:DEGREES
149
root -0.567874014377594 -0.567874014377594 -0.567874014377594 -0.5678755879732001 -0.5678755879732001 -0.5678755879732001
lhipjoint -9.671654586443837e-08 -1.5341245206083327e-07 1.0672170578144923e-06
lfemur -36.20754312991127 4.120024748865052 -16.173737690428453
ltibia 43.66700104325189 -2.5257901227417167e-06 -1.9463854739758887e-07
lfoot -19.358412428689864 -1.1475558335132647e-06 4.270289764378978
ltoes -57.7335126766101 -3.751258146842859e-07 1.751013923224191e-06
rhipjoint 1.1005675908711953e-07 6.870210827458292e-07 -1.494104084495789e-06
rfemur -35.27364453450626 -0.4838793623034114 12.618094887776142
rtibia 45.74347417358414 2.5312388963553753e-06 -3.4924204339776163e-06
rfoot -28.35762037719396 6.200684220349009e-07 -3.8128331489623197
rtoes -12.647227352133537 -1.6169146134112025e-07 -1.0484176896476722e-06
lowerback 25.40451637255266 1.5982094108262122 -0.4420361560244588
upperback 2.5055998286189944 2.061446500714817 0.823843757308598
thorax -11.509521888310868 1.0099253243347197 0.6716400352874454
lowerneck -11.457395592112624 -2.029057957114028 -1.9248847656666397
upperneck 23.5797988923852 -3.0151462414105206 2.3060364286666197
head 9.370881229926802 -1.331763944747426 0.7745436119620046
lclavicle -1.4085775951116125e-07 5.4855408257763046e-08 -1.0938974842598547e-06
lhumerus 14.931741214395213 -17.67701280787678 74.97047176418859
lradius 62.035070193235754 7.20084500770327e-07 5.438407753396261e-06
lwrist -5.131124747622714e-07 -31.064837571714797 1.2372372977555552e-07
lhand -4.562975323145072 2.6246558075710764e-07 -26.656099019086014
lfingers 7.125022823272814 9.845282338726802e-08 3.18924141240953e-07
lthumb 21.213298854421275 -1.2803152392500461e-07 2.20318914769186
rclavicle 1.398304276268298e-07 4.3880174074018323e-07 -1.3740421654916584e-06
rhumerus 6.676281529237092 14.51890238284484 -74.96640097144326
rradius 78.79945532233023 -1.0487042957911284e-06 -1.2840657900415277e-05
rwrist 4.978163985215523e-07 45.85869946488226 1.112834150611164e-06
rhand -6.972260092956778 2.0321462048512455e-07 -36.68780446630613
rfingers 7.125022396385991 5.1024341088409163e-08 -3.1892353057445414e-07
rthumb 18.897492480477187 1.5447771905696147e-06 -65.78980959509936
150
root -0.567874014377594 -0.567874014377594 -0.567874014377594 -0.5678755879732001 -0.5678755879732001 -0.5678755879732001
lhipjoint -9.671654586443837e-08 -1.5341245206083327e-07 1.0672170578144923e-06
lfemur -37.94654344354237 6.565411764195329 -16.87866614673984
ltibia 45.00242596939444 -2.6401441419811804e-06 -7.366722384338446e-07
lfoot -18.048066249632306 -5.176664692885032e-07 1.9925175122715175
ltoes -57.13295121836381 -3.6625110023437953e-07 2.815971718548471e-06
rhipjoint 1.1005675908711953e-07 6.870210827458292e-07 -1.494104084495789e-06
rfemur -36.58054317558025 -0.07162227077125286 11.63092508571326
rtibia 46.60551234873145 2.4590951632932994e-06 -4.029562686358156e-06
rfoot -28.176343741527237 2.6954570921132e-06 -4.609192225050786
rtoes -14.183992594629727 -3.550455735361469e-07 -1.6127286981171471e-06
lowerback 28.724346894110283 1.3643986953234528 -0.6310686048958639
upperback 2.884033716659544 1.7846601282326318 1.1839317572384933
thorax -12.41400200518699 0.890656561047957 1.1927424878243982
lowerneck -11.457395592112624 -2.029057957114028 -1.9248847656666397
upperneck 23.5797988923852 -3.0151462414105206 2.3060364286666197
head 9.370881229926802 -1.331763944747426 0.7745436119620046
lclavicle -1.4085775951116125e-07 5.4855408257763046e-08 -1.0938974842598547e-06
lhumerus 26.27790461455324 -20.488863377840335 70.94070796520526
lradius 56.60308563312172 -3.462124861859115e-07 5.065712289599612e-06
lwrist -4.7401490839610094e-07 -29.298868256145905 1.1429797786597622e-07
lhand -4.562975323145072 2.6246558075710764e-07 -26.656099019086014
lfingers 7.125022823272814 9.845282338726802e-08 3.18924141240953e-07
lthumb 21.213298854421275 -1.2803152392500461e-07 2.20318914769186
rclavicle 1.398304276268298e-07 4.3880174074018323e-07 -1.3740421654916584e-06
rhumerus 19.68331086712903 13.520032466733726 -70.62074775353601
rradius 71.7326069277657 -3.4462923150991644e-06 -1.1612692250333875e-05
rwrist 4.848798867434799e-07 45.235314929524364 1.0839145118923017e-06
rhand -6.972260092956778 2.0321462048512455e-07 -36.68780446630613
rfingers 7.125022396385991 5.1024341088409163e-08 -3.1892353057445414e-07
rthumb 18.897492480477187 1.5447771905696147e-06 -65.78980959509936
151
root -0.567874014377594 -0.567874014377594 -0.567874014377594 -0.5678755879732001 -0.5678755879732001 -0.5678755879732001
lhipjoint -9.671654586443837e-08 -1.5341245206083327e-07 1.0672170578144923e-06
lfemur -37.338058965858856 7.76940933655485 -17.34160270830496
ltibia 43.84918609407822 -1.795275641726685e-06 -8.919460019831453e-07
lfoot -16.64108996929199 -1.1310247860563895e-06 0.9602295082639415
ltoes -56.63367463531963 8.521659649156451e-07 1.0216570623354623e-06
rhipjoint 1.1005675908711953e-07 6.870210827458292e-07 -1.494104084495789e-06
rfemur -34.74234802463307 0.9447483509015787 10.724243086603455
rtibia 43.05286116893561 2.071116141919158e-06 -2.691600936728519e-06
rfoot -27.039772942880433 1.0594711603876935e-06 -6.714543395193857
rtoes -14.36611446620624 -1.2026331681544814e-06 -1.332987260330078e-06
lowerback 30.949069280377667 1.137472597060655 -0.8331056005448411
upperback 3.013874972451252 1.4960845290778872 1.5790171128670052
thorax -13.078676741624903 0.7795294366127024 1.7681177302279782
lowerneck -11.457395592112624 -2.029057957114028 -1.9248847656666397
upperneck 23.5797988923852 -3.0151462414105206 2.3060364286666197
head 9.370881229926802 -1.331763944747426 0.7745436119620046
lclavicle -1.4085775951116125e-07 5.4855408257763046e-08 -1.0938974842598547e-06
lhumerus 37.32137281371652 -21.721792777750384 68.10118659136668
lradius 49.92161700209683 -5.657890249521697e-07 1.8250075686667558e-06
lwrist -4.540570041032297e-07 -28.35962162262077 1.094836740223947e-07
lhand -4.562975323145072 2.6246558075710764e-07 -26.656099019086014
lfingers 7.125022823272814 9.845282338726802e-08 3.18924141240953e-07
lthumb 21.213298854421275 -1.2803152392500461e-07 2.20318914769186
rclavicle 1.398304276268298e-07 4.3880174074018323e-07 -1.3740421654916584e-06
rhumerus 32.17217516071395 12.532783263721743 -65.79078631215066
rradius 64.13428785350415 -3.1791432276291955e-06 -9.556583034068235e-06
rwrist 4.414486746794095e-07 43.00122493881031 9.86823525686324e-07
rhand -6.972260092956778 2.0321462048512455e-07 -36.68780446630613
rfingers 7.125022396385991 5.1024341088409163e-08 -3.1892353057445414e-07
rthumb 18.897492480477187 1.5447771905696147e-06 -65.78980959509936
152
root -0.567874014377594 -0.567874014377594 -0.567874014377594 -0.5678755879732001 -0.5678755879732001 -0.5678755879732001
lhipjoint -9.671654586443837e-08 -1.5341245206083327e-07 1.0672170578144923e-06
lfemur -35.074339614525286 7.657502663419716 -17.395986382023896
ltibia 40.6457898073018 -1.691332672070462e-06 -3.837953451905817e-07
lfoot -15.293905164945969 9.509945008663251e-07 1.1765555798217027
ltoes -56.23997570137092 -1.3014828738771212e-06 2.1534492526253953e-06
rhipjoint 1.1005675908711953e-07 6.870210827458292e-07 -1.494104084495789e-06
rfemur -30.684911714227425 2.1535434908227993 10.060446029473887
rtibia 36.07732215829039 2.018375522635756e-06 -1.8141126676609337e-06
rfoot -25.091896906693886 7.00223488895272e-07 -9.623166219752271
rtoes -13.524619792535036 5.726604479526282e-07 -1.5639325773052591e-06
lowerback 32.37712181694935 0.8884710605961116 -0.8499624006947267
upperback 2.8605372255844657 1.2213060187682743 1.9522729704647446
thorax -13.712120438082934 0.6675007272070062 2.212326233254045
lowerneck -11.457395592112624 -2.029057957114028 -1.9248847656666397
upperneck 23.5797988923852 -3.0151462414105206 2.3060364286666197
head 9.370881229926802 -1.331763944747426 0.7745436119620046
lclavicle -1.4085775951116125e-07 5.4855408257763046e-08 -1.0938974842598547e-06
lhumerus 48.190368953173696 -21.107611922299082 67.58265228995765
lradius 43.15592530841651 -5.396166730338431e-07 9.145255993332906e-07
lwrist -4.619329734942817e-07 -28.733379819287627 1.1138366105578865e-07
lhand -4.562975323145072 2.6246558075710764e-07 -26.656099019086014
lfingers 7.125022823272814 9.845282338726802e-08 3.18924141240953e-07
lthumb 21.213298854421275 -1.2803152392500461e-07 2.20318914769186
rclavicle 1.398304276268298e-07 4.3880174074018323e-07 -1.3740421654916584e-06
rhumerus 43.899090871248916 11.94756155657765 -61.443029395979046
rradius 57.144883558843816 -3.213288034245391e-06 -6.765527322894475e-06
rwrist 3.9082307337030605e-07 40.08704276715433 8.736559296763586e-07
rhand -6.972260092956778 2.0321462048512455e-07 -36.68780446630613
rfingers 7.125022396385991 5.1024341088409163e-08 -3.1892353057445414e-07
rthumb 18.897492480477187 1.5447771905696147e-06 -65.78980959509936
